<svg version="1.1" id="Layer_1" xmlns="http://www.w3.org/2000/svg" xmlns:xlink="http://www.w3.org/1999/xlink" x="0px" y="0px"
	 width="100%" viewBox="0 0 1080 1080" enable-background="new 0 0 1080 1080" xml:space="preserve">
<path fill="#000000" opacity="1.000000" stroke="none" 
	d="
M599.000000,1081.000000 
	C399.356323,1081.000000 200.212631,1081.000000 1.034474,1081.000000 
	C1.034474,721.064514 1.034474,361.129059 1.034474,1.096787 
	C360.893890,1.096787 720.787842,1.096787 1080.840820,1.096787 
	C1080.840820,360.999939 1080.840820,720.999939 1080.840820,1081.000000 
	C920.461914,1081.000000 759.980957,1081.000000 599.000000,1081.000000 
M32.055313,959.578125 
	C32.342499,959.748047 32.629684,959.917969 32.990120,960.818909 
	C43.993217,972.241150 57.921471,975.981384 73.205215,975.998108 
	C108.816887,976.036987 144.428650,976.023376 180.040298,975.970154 
	C181.699982,975.967651 183.358765,975.375183 185.947937,974.950867 
	C195.012650,975.312500 204.074997,975.888611 213.142578,975.988159 
	C228.796555,976.160034 244.456680,976.218323 260.108551,975.968933 
	C269.883575,975.813232 279.842804,975.789062 288.829773,969.039734 
	C290.917389,967.725342 293.005005,966.411011 295.814240,965.035767 
	C299.237091,961.718079 302.659973,958.400330 306.783936,955.035889 
	C307.225250,954.391663 307.666565,953.747437 308.746643,952.843201 
	C309.864441,950.926819 310.982239,949.010437 312.869324,947.029724 
	C318.710968,938.052612 320.937683,927.917786 320.948761,917.509277 
	C321.082977,791.248657 321.035797,664.987732 321.036316,538.726929 
	C321.036316,537.227844 320.848755,535.691528 321.124939,534.244446 
	C321.275360,533.456177 322.092804,532.432068 322.829651,532.192932 
	C324.467224,531.661438 326.243500,531.557190 328.964172,531.116760 
	C328.964172,548.635437 328.964172,566.539734 328.964172,584.444092 
	C328.964172,696.546387 328.946655,808.648682 329.056122,920.750916 
	C329.059143,923.835632 330.426788,926.919067 330.992493,930.841125 
	C331.517761,936.188965 332.401184,941.387329 336.975403,945.820251 
	C337.955505,947.241455 338.935608,948.662659 339.974213,950.817932 
	C342.956909,953.904480 345.939575,956.991028 348.978363,960.796875 
	C350.956482,962.228271 352.934601,963.659668 354.986755,965.879456 
	C360.862000,969.701843 366.766296,973.689697 373.922302,974.397095 
	C380.260803,975.023804 386.673431,974.900696 393.979187,975.008972 
	C430.973663,975.039001 467.968170,975.068970 505.386597,975.863464 
	C516.933228,975.908264 528.479797,975.968262 540.026367,975.958984 
	C540.697632,975.958435 541.368530,975.395874 542.895691,975.009827 
	C545.763489,975.339966 548.636108,975.984863 551.498169,975.941101 
	C559.980713,975.811646 568.458984,975.410583 577.286621,975.823486 
	C579.317444,975.576355 581.345154,975.298950 583.379761,975.088318 
	C587.852051,974.625305 592.383057,974.474792 596.773193,973.606323 
	C598.374084,973.289612 599.643494,971.297363 601.851868,970.028748 
	C604.591736,968.376892 607.331543,966.725098 610.819458,965.029602 
	C613.414490,963.056763 616.160278,961.252014 618.578979,959.082520 
	C630.518250,948.373291 636.846863,934.592407 636.874634,918.902588 
	C637.131592,773.776672 637.066772,628.650146 636.981750,483.523804 
	C636.969360,462.279083 636.529846,441.029877 635.933472,419.792755 
	C635.726685,412.429016 633.469177,405.455322 629.626709,398.984192 
	C625.835327,392.599121 621.253235,387.040344 615.729858,382.051788 
	C609.490479,376.416656 603.329346,371.229553 594.551819,369.798157 
	C590.538574,369.143646 586.828125,367.487366 585.724854,361.912811 
	C584.635681,356.409271 581.993591,350.926453 578.912537,346.158478 
	C570.284546,332.806641 557.431580,324.720245 542.533569,320.170166 
	C536.758911,318.406494 530.380615,318.200500 524.262451,318.087036 
	C516.686890,317.946533 509.098083,318.705109 501.511108,318.957581 
	C489.763184,319.348572 478.013672,319.745300 466.261566,319.940796 
	C456.595825,320.101624 446.925293,319.973602 437.256866,319.973602 
	C395.435150,319.973602 353.612823,320.089966 311.792267,319.870178 
	C303.934601,319.828918 296.614594,321.613159 289.989563,325.147675 
	C280.692261,330.107849 271.402191,335.666046 266.215820,345.410736 
	C262.646271,352.117706 259.752289,359.227600 257.094147,366.357910 
	C255.764877,369.923645 253.427811,370.347321 250.564606,369.868225 
	C249.289825,369.654907 247.553513,368.541321 247.144455,367.426270 
	C245.013474,361.617554 244.026169,355.249634 241.114975,349.907928 
	C238.452667,345.022888 233.845093,341.197998 230.024506,336.158203 
	C229.689346,335.432373 229.539108,334.497894 228.991104,334.012177 
	C221.412476,327.295135 212.547226,322.598022 202.882050,320.185608 
	C195.887329,318.439758 188.388947,317.921478 181.145828,318.099976 
	C152.031540,318.817322 122.871407,316.055420 93.774376,319.789886 
	C84.607430,320.966431 75.162071,319.969238 65.844131,319.977142 
	C63.850117,319.978851 61.706650,319.553650 59.887589,320.130707 
	C51.212620,322.882721 42.633179,326.056549 35.659336,332.126678 
	C32.383781,334.977814 29.802593,338.626709 26.245291,342.176422 
	C25.478024,342.876984 24.601351,343.489990 23.960096,344.291382 
	C15.824120,354.458893 12.654899,366.040100 14.019134,379.809143 
	C14.013368,384.438293 14.013906,389.067444 14.000510,393.696564 
	C13.973247,403.118439 13.938464,412.540283 13.168653,422.338104 
	C12.914529,423.915253 12.386316,425.503754 12.450857,427.067749 
	C12.863215,437.060455 13.405947,447.047821 13.991862,457.962891 
	C13.963325,462.962585 13.934788,467.962280 13.172715,473.332336 
	C13.088838,478.296631 13.105221,483.265198 12.893836,488.224060 
	C12.667177,493.541260 11.825029,498.874237 13.991363,504.964722 
	C13.994132,622.513306 14.006925,740.061951 13.957703,857.610535 
	C13.955992,861.696350 13.030211,865.785217 13.073494,869.866943 
	C13.141567,876.286499 13.820359,882.697754 13.964099,889.118713 
	C14.172614,898.433167 14.134817,907.753235 14.070552,917.979919 
	C13.132247,926.170898 14.646304,934.059509 18.129606,941.360596 
	C19.997383,945.275513 23.298407,948.506592 25.987419,952.786072 
	C27.298767,954.216675 28.610115,955.647278 29.987534,957.773315 
	C30.630701,958.209229 31.273867,958.645142 32.055313,959.578125 
M711.235291,365.264313 
	C707.511047,368.925659 703.132080,366.768097 699.061584,366.454010 
	C693.574890,366.030640 688.100159,364.868866 682.860962,369.077209 
	C682.543152,370.810059 681.905884,372.553650 681.963623,374.273865 
	C682.193970,381.128693 682.640747,387.976227 682.203308,394.988129 
	C680.976074,395.281464 679.741089,395.855530 678.522888,395.821899 
	C671.492249,395.627472 664.466858,395.193634 657.436157,395.094940 
	C656.270325,395.078583 655.086914,396.313080 653.985046,396.979858 
	C653.985046,396.979858 653.981140,396.905853 653.235596,397.257080 
	C652.823669,400.810242 652.062805,404.362549 652.053833,407.916748 
	C651.964722,443.229004 651.885010,478.542053 652.043701,513.853821 
	C652.136230,534.438354 652.846680,555.019897 652.957397,575.604553 
	C653.121399,606.100037 652.984375,636.597046 653.041626,667.093384 
	C653.044800,668.761047 653.653931,670.427490 653.990723,672.021851 
	C653.990723,672.021851 653.919250,672.038147 654.005310,672.912720 
	C655.284180,673.278320 656.573120,673.989685 657.840210,673.952454 
	C665.257935,673.735168 672.672729,673.018677 680.084656,673.065613 
	C711.983582,673.267456 743.880859,673.901306 775.779236,673.937134 
	C800.641968,673.965088 825.505310,673.095642 850.368591,673.082458 
	C872.939331,673.070496 895.509521,673.848267 918.081604,673.967773 
	C949.393066,674.133545 980.706177,674.042786 1012.018372,673.965393 
	C1015.766907,673.956116 1019.518127,673.032471 1023.260864,673.081360 
	C1029.843262,673.167175 1036.418091,673.791687 1043.001221,673.910034 
	C1044.274902,673.932983 1045.571777,672.672485 1047.223389,671.226929 
	C1047.410400,663.680420 1048.346069,656.047668 1047.491089,648.621094 
	C1047.012329,644.461426 1048.026978,644.050964 1051.212280,644.058716 
	C1058.354614,644.076172 1065.499146,644.155762 1072.636841,643.972107 
	C1073.802734,643.942200 1074.937500,642.698303 1076.009033,642.013611 
	C1076.009033,642.013611 1076.012695,642.091187 1076.803955,641.690552 
	C1076.867920,641.197449 1076.988037,640.704346 1076.988159,640.211304 
	C1076.998047,579.277344 1077.004395,518.343323 1076.959839,457.409393 
	C1076.958984,456.242310 1076.350342,455.075714 1076.015747,453.985046 
	C1076.015747,453.985046 1076.092407,453.987457 1075.988770,453.111053 
	C1075.218384,452.740692 1074.449585,452.051331 1073.677368,452.047485 
	C1060.393555,451.981293 1047.107544,451.882385 1033.825806,452.061249 
	C1029.000000,452.126190 1024.183960,452.898102 1019.000610,453.381287 
	C1019.000610,447.069214 1018.881531,441.617615 1019.044250,436.174500 
	C1019.145630,432.786804 1019.673157,429.411865 1020.941162,425.936554 
	C1027.638550,426.298035 1034.333618,426.827698 1041.034546,426.914459 
	C1042.945435,426.939240 1044.873047,425.678162 1046.923828,424.147614 
	C1047.293091,422.284180 1047.947388,420.425812 1047.980835,418.556366 
	C1048.107056,411.495514 1048.031494,404.431091 1048.031494,396.681030 
	C1056.489136,397.062317 1064.478149,397.502228 1072.473145,397.696503 
	C1073.665161,397.725464 1074.885132,396.599365 1076.007690,396.009186 
	C1076.007690,396.009186 1076.013062,396.093475 1076.803345,395.690704 
	C1076.867310,395.197327 1076.987305,394.703918 1076.987305,394.210541 
	C1076.997314,326.573486 1077.003540,258.936432 1076.958862,191.299393 
	C1076.958008,190.104340 1076.340942,188.909683 1075.543213,186.988861 
	C1067.466675,186.988861 1059.390259,186.988861 1051.578003,186.988861 
	C1051.271973,186.145370 1051.172607,185.998596 1051.172119,185.851501 
	C1051.146729,178.370163 1051.134033,170.888809 1051.110352,163.407471 
	C1051.091553,157.476700 1050.482056,156.713654 1044.500488,156.932404 
	C1037.157715,157.200943 1029.826782,157.797348 1022.111877,158.275497 
	C1022.111877,152.976746 1022.218628,148.519287 1022.082703,144.069244 
	C1021.939392,139.378723 1021.564453,134.695267 1021.005127,129.164642 
	C1019.245605,128.776428 1017.486328,128.049362 1015.726624,128.048462 
	C910.639343,127.994339 805.552124,127.999969 700.464844,128.000458 
	C699.132568,128.000458 697.750366,127.797890 696.488770,128.098343 
	C695.848145,128.250916 695.424805,129.315643 694.252380,130.187180 
	C694.133057,132.336563 693.924133,134.485382 693.910889,136.635422 
	C693.867249,143.717606 693.894409,150.800217 693.894409,158.465561 
	C684.185120,157.943741 675.115540,157.545868 666.060120,156.936676 
	C660.449890,156.559250 656.976807,158.552887 656.975952,162.646072 
	C656.963013,222.961044 656.952515,283.276031 657.051697,343.590820 
	C657.054199,345.092316 658.314819,346.591736 658.989136,348.019226 
	C658.989136,348.019226 658.918640,348.037781 659.306458,348.835052 
	C675.076172,348.901031 690.846375,348.920166 706.614807,349.096466 
	C708.443054,349.116913 710.261475,350.009338 711.957520,350.628601 
	C711.957520,350.628601 712.079529,350.764282 712.126404,351.649353 
	C712.098267,356.109497 712.070068,360.569641 711.235291,365.264313 
z"/>
<path fill="#024BAD" opacity="1.000000" stroke="none" 
	d="
M712.079529,350.764282 
	C712.079529,350.764282 711.957520,350.628601 712.256470,350.137970 
	C711.059631,348.889801 709.571594,347.492645 708.066895,347.474396 
	C694.123657,347.305481 680.177368,347.342712 666.232300,347.403931 
	C663.793518,347.414642 661.356506,347.816559 658.918640,348.037781 
	C658.918640,348.037781 658.989136,348.019226 659.109741,347.593567 
	C659.173584,346.339478 659.067200,345.511078 659.067078,344.682648 
	C659.058716,284.254425 659.057617,223.826218 659.066833,163.398010 
	C659.067017,162.267548 659.197083,161.137100 659.300537,159.452759 
	C671.369141,159.452759 683.276306,159.452759 696.195435,159.452759 
	C696.195435,149.293274 696.195435,139.693344 696.651123,130.121552 
	C708.095276,130.152618 719.083679,130.156250 730.072144,130.158340 
	C826.636902,130.176712 923.201660,130.194809 1019.836365,130.663177 
	C1019.906311,140.532181 1019.906311,149.951004 1019.906311,160.047928 
	C1030.127563,160.047928 1039.498779,160.047928 1049.282593,160.047928 
	C1049.282593,170.000717 1049.282593,179.263474 1049.282593,189.328506 
	C1058.325439,189.328506 1066.934204,189.328506 1075.558350,189.773834 
	C1075.577271,256.867767 1075.576904,323.516418 1075.601929,390.165039 
	C1075.602661,392.141235 1075.869995,394.117340 1076.013062,396.093475 
	C1076.013062,396.093475 1076.007690,396.009186 1075.584839,395.902588 
	C1065.587646,395.796021 1056.013428,395.796021 1046.015015,395.796021 
	C1046.015015,406.093567 1046.015015,415.549164 1045.547607,425.054413 
	C1036.710327,425.189911 1028.340454,425.275726 1019.566040,425.283386 
	C1018.518616,425.571198 1017.318481,425.930878 1017.314270,426.304047 
	C1017.210144,435.515137 1017.232666,444.727661 1017.232666,453.987457 
	C1037.305420,453.987457 1056.698853,453.987457 1076.092407,453.987457 
	C1076.092407,453.987457 1076.015747,453.985046 1075.784912,454.370850 
	C1075.562744,515.226074 1075.567261,575.695496 1075.598145,636.164917 
	C1075.599121,638.140381 1075.868408,640.115784 1076.012695,642.091187 
	C1076.012695,642.091187 1076.009033,642.013611 1075.581299,641.915283 
	C1065.624512,641.817017 1056.095703,641.817017 1046.057983,641.817017 
	C1046.057983,644.726685 1046.096436,646.837280 1046.051147,648.946045 
	C1045.888428,656.525513 1045.697388,664.104370 1045.103638,671.613770 
	C1041.024048,671.512207 1037.358032,671.452515 1033.691895,671.452515 
	C916.870361,671.451965 800.048828,671.443481 683.227295,671.486389 
	C673.457886,671.489990 663.688599,671.845886 653.919250,672.038147 
	C653.919250,672.038147 653.990723,672.021851 654.182495,671.617310 
	C654.312805,669.884277 654.197632,668.555725 654.197510,667.227173 
	C654.188965,578.753235 654.190918,490.279327 654.181091,401.805389 
	C654.180908,400.172211 654.050720,398.539032 653.981140,396.905853 
	C653.981140,396.905853 653.985046,396.979858 654.358032,397.240051 
	C663.035034,397.485565 671.341858,397.571350 679.639771,397.339630 
	C680.784790,397.307709 681.885925,395.703033 683.007324,394.826477 
	C682.640747,387.976227 682.193970,381.128693 681.963623,374.273865 
	C681.905884,372.553650 682.543152,370.810059 683.441895,368.677124 
	C692.445679,368.239563 700.868530,368.209503 709.291199,368.159149 
	C711.303528,368.147125 713.726990,368.433777 712.327148,364.696655 
	C712.441162,359.793304 712.260376,355.278809 712.079529,350.764282 
M871.988892,380.294617 
	C870.398560,380.915985 868.809753,382.075073 867.217590,382.079742 
	C832.053467,382.183136 796.888977,382.158844 761.724548,382.158875 
	C759.814636,382.158875 757.904724,382.158844 755.543579,382.158844 
	C755.543579,392.227875 755.543579,401.502960 755.543579,411.226410 
	C745.661255,411.226410 736.229858,411.226410 726.263855,411.226410 
	C726.263855,421.089203 726.263855,430.498230 726.263855,440.530334 
	C716.332825,440.530334 706.934387,440.530334 697.558838,440.530334 
	C697.558838,503.399506 697.558838,565.633057 697.558838,627.902832 
	C799.512268,627.902832 901.107178,627.902832 1003.301880,627.902832 
	C1003.301880,618.269043 1003.301880,608.877869 1003.301880,599.031860 
	C1013.312805,599.031860 1022.731445,599.031860 1032.152466,599.031860 
	C1032.152466,564.836365 1032.152466,531.124878 1032.152466,497.541046 
	C988.314209,497.541046 944.908386,497.541046 901.079834,497.541046 
	C901.079834,531.512329 901.079834,565.104004 901.079834,598.910767 
	C891.253601,598.910767 881.853455,598.910767 871.997498,598.910767 
	C871.997498,589.259766 871.997498,579.844055 871.997498,569.810791 
	C857.188843,569.810791 842.825012,569.810791 828.622559,569.810791 
	C828.622559,526.441772 828.622559,483.704559 828.622559,440.409119 
	C838.411133,440.409119 847.834229,440.409119 857.770996,440.409119 
	C857.770996,430.447906 857.770996,421.036316 857.770996,411.016968 
	C896.841370,411.016968 935.380371,411.016968 974.326111,411.016968 
	C974.326111,401.132660 974.326111,391.867859 974.326111,382.038879 
	C984.119812,382.038879 993.514832,382.038879 1003.385254,382.038879 
	C1003.385254,372.054657 1003.385254,362.641937 1003.385254,352.837036 
	C1013.309509,352.837036 1022.739441,352.837036 1032.266113,352.837036 
	C1032.266113,312.346924 1032.266113,272.269623 1032.266113,231.633148 
	C1023.555481,231.633148 1015.151672,231.633148 1006.211914,231.633148 
	C1006.211914,221.678040 1006.211914,212.267609 1006.211914,202.392197 
	C996.388977,202.392197 987.115173,202.392197 977.294922,202.392197 
	C977.294922,192.502121 977.294922,183.085373 977.294922,173.487015 
	C897.511047,173.487015 818.289062,173.487015 738.501709,173.487015 
	C738.501709,183.216705 738.501709,192.630112 738.501709,202.604553 
	C726.045227,202.604553 714.141113,202.604553 702.233643,202.604553 
	C702.233643,236.806412 702.233643,270.421478 702.233643,304.261536 
	C736.197632,304.261536 769.943542,304.261536 804.093262,304.261536 
	C804.093262,294.535522 804.093262,285.095551 804.093262,275.162048 
	C813.892761,275.162048 823.302002,275.162048 833.273804,275.162048 
	C833.273804,250.769104 833.273804,226.873199 833.273804,202.841553 
	C846.429504,202.841553 859.006836,202.841553 872.053772,202.841553 
	C872.053772,212.540482 872.053772,221.960648 872.053772,231.873596 
	C881.921204,231.873596 891.328674,231.873596 900.926392,231.873596 
	C900.926392,272.439941 900.926392,312.502747 900.926392,353.016113 
	C891.264404,353.016113 881.846558,353.016113 872.001404,353.016113 
	C872.001404,362.082855 872.001404,370.705048 871.988892,380.294617 
z"/>
<path fill="#EBF1F9" opacity="1.000000" stroke="none" 
	d="
M230.094757,336.905914 
	C233.845093,341.197998 238.452667,345.022888 241.114975,349.907928 
	C244.026169,355.249634 245.013474,361.617554 247.144455,367.426270 
	C247.553513,368.541321 249.289825,369.654907 250.564606,369.868225 
	C253.427811,370.347321 255.764877,369.923645 257.094147,366.357910 
	C259.752289,359.227600 262.646271,352.117706 266.215820,345.410736 
	C271.402191,335.666046 280.692261,330.107849 289.989563,325.147675 
	C296.614594,321.613159 303.934601,319.828918 311.792267,319.870178 
	C353.612823,320.089966 395.435150,319.973602 437.256866,319.973602 
	C446.925293,319.973602 456.595825,320.101624 466.261566,319.940796 
	C478.013672,319.745300 489.763184,319.348572 501.511108,318.957581 
	C509.098083,318.705109 516.686890,317.946533 524.262451,318.087036 
	C530.380615,318.200500 536.758911,318.406494 542.533569,320.170166 
	C557.431580,324.720245 570.284546,332.806641 578.912537,346.158478 
	C581.993591,350.926453 584.635681,356.409271 585.724854,361.912811 
	C586.828125,367.487366 590.538574,369.143646 594.551819,369.798157 
	C603.329346,371.229553 609.490479,376.416656 615.729858,382.051788 
	C621.253235,387.040344 625.835327,392.599121 629.626709,398.984192 
	C633.469177,405.455322 635.726685,412.429016 635.933472,419.792755 
	C636.529846,441.029877 636.969360,462.279083 636.981750,483.523804 
	C637.066772,628.650146 637.131592,773.776672 636.874634,918.902588 
	C636.846863,934.592407 630.518250,948.373291 618.578979,959.082520 
	C616.160278,961.252014 613.414490,963.056763 610.299561,964.893066 
	C609.779724,964.756592 609.489136,964.438904 609.707642,964.210938 
	C627.182495,951.304932 635.048950,934.242188 635.031921,912.857727 
	C634.904541,752.367737 634.962891,591.877563 634.957458,431.387451 
	C634.957336,429.221588 634.942810,427.052521 634.831482,424.890320 
	C633.477112,398.579132 613.586792,375.317719 588.536926,370.431122 
	C587.164917,370.163483 585.697937,368.238708 585.057739,366.748993 
	C582.772461,361.430908 581.552002,355.532806 578.622437,350.635529 
	C566.760681,330.806732 548.946777,321.493134 525.837585,321.560120 
	C473.841217,321.710846 421.844116,321.594666 369.847321,321.611816 
	C351.016205,321.618011 332.171539,321.258331 313.357178,321.842712 
	C286.019531,322.691895 264.866821,340.845886 258.877686,367.583038 
	C258.603210,368.808411 257.669769,370.502625 256.664764,370.835358 
	C253.298904,371.949585 249.761185,372.544617 246.019730,373.400085 
	C244.688614,359.294434 238.995422,347.542419 229.525116,337.491394 
	C229.841476,337.166016 229.968124,337.035950 230.094757,336.905914 
z"/>
<path fill="#E3ECF6" opacity="1.000000" stroke="none" 
	d="
M331.158112,930.003113 
	C330.426788,926.919067 329.059143,923.835632 329.056122,920.750916 
	C328.946655,808.648682 328.964172,696.546387 328.964172,584.444092 
	C328.964172,566.539734 328.964172,548.635437 328.964172,531.116760 
	C326.243500,531.557190 324.467224,531.661438 322.829651,532.192932 
	C322.092804,532.432068 321.275360,533.456177 321.124939,534.244446 
	C320.848755,535.691528 321.036316,537.227844 321.036316,538.726929 
	C321.035797,664.987732 321.082977,791.248657 320.948761,917.509277 
	C320.937683,927.917786 318.710968,938.052612 312.293121,946.890137 
	C311.588928,946.636475 311.460938,946.522339 311.499451,946.098145 
	C317.617676,935.337341 319.233185,923.995300 319.225952,912.127747 
	C319.144531,778.131714 319.175232,644.135620 319.175903,510.139496 
	C319.175903,508.165680 319.175903,506.191895 319.175903,504.030945 
	C322.939148,503.124298 326.417786,502.286224 330.420013,501.321991 
	C330.420013,503.541412 330.420013,505.334473 330.420013,507.127533 
	C330.419830,641.123718 330.397980,775.119934 330.481049,909.116089 
	C330.485352,916.080566 331.383820,923.044556 331.689026,930.006470 
	C331.512054,930.004211 331.158112,930.003113 331.158112,930.003113 
z"/>
<path fill="#FFFFFF" opacity="1.000000" stroke="none" 
	d="
M1019.766418,130.212982 
	C923.201660,130.194809 826.636902,130.176712 730.072144,130.158340 
	C719.083679,130.156250 708.095276,130.152618 696.329712,130.073090 
	C695.336121,129.986984 695.119690,129.977493 694.903198,129.968002 
	C695.424805,129.315643 695.848145,128.250916 696.488770,128.098343 
	C697.750366,127.797890 699.132568,128.000458 700.464844,128.000458 
	C805.552124,127.999969 910.639343,127.994339 1015.726624,128.048462 
	C1017.486328,128.049362 1019.245605,128.776428 1020.764648,129.625580 
	C1020.271606,130.128647 1020.019043,130.170807 1019.766418,130.212982 
z"/>
<path fill="#EBF1F9" opacity="1.000000" stroke="none" 
	d="
M26.906742,341.914062 
	C29.802593,338.626709 32.383781,334.977814 35.659336,332.126678 
	C42.633179,326.056549 51.212620,322.882721 59.887589,320.130707 
	C61.706650,319.553650 63.850117,319.978851 65.844131,319.977142 
	C75.162071,319.969238 84.607430,320.966431 93.774376,319.789886 
	C122.871407,316.055420 152.031540,318.817322 181.145828,318.099976 
	C188.388947,317.921478 195.887329,318.439758 202.882050,320.185608 
	C212.547226,322.598022 221.412476,327.295135 228.991104,334.012177 
	C229.539108,334.497894 229.689346,335.432373 230.059631,336.532043 
	C229.968124,337.035950 229.841476,337.166016 229.260635,337.290405 
	C218.041779,327.163330 205.295761,321.808868 190.498795,321.763733 
	C153.066238,321.649536 115.628418,321.997131 78.202522,321.466797 
	C57.988823,321.180389 41.026352,327.243347 27.472206,342.443237 
	C27.158129,342.149170 27.032434,342.031616 26.906742,341.914062 
z"/>
<path fill="#F8FAFD" opacity="1.000000" stroke="none" 
	d="
M653.962280,672.475464 
	C663.688599,671.845886 673.457886,671.489990 683.227295,671.486389 
	C800.048828,671.443481 916.870361,671.451965 1033.691895,671.452515 
	C1037.358032,671.452515 1041.024048,671.512207 1045.434082,671.714233 
	C1046.404419,671.924316 1046.631104,671.964111 1046.857910,672.003967 
	C1045.571777,672.672485 1044.274902,673.932983 1043.001221,673.910034 
	C1036.418091,673.791687 1029.843262,673.167175 1023.260864,673.081360 
	C1019.518127,673.032471 1015.766907,673.956116 1012.018372,673.965393 
	C980.706177,674.042786 949.393066,674.133545 918.081604,673.967773 
	C895.509521,673.848267 872.939331,673.070496 850.368591,673.082458 
	C825.505310,673.095642 800.641968,673.965088 775.779236,673.937134 
	C743.880859,673.901306 711.983582,673.267456 680.084656,673.065613 
	C672.672729,673.018677 665.257935,673.735168 657.840210,673.952454 
	C656.573120,673.989685 655.284180,673.278320 653.962280,672.475464 
z"/>
<path fill="#E6EDF7" opacity="1.000000" stroke="none" 
	d="
M694.577759,130.077591 
	C695.119690,129.977493 695.336121,129.986984 695.874023,130.044952 
	C696.195435,139.693344 696.195435,149.293274 696.195435,159.452759 
	C683.276306,159.452759 671.369141,159.452759 659.300537,159.452759 
	C659.197083,161.137100 659.067017,162.267548 659.066833,163.398010 
	C659.057617,223.826218 659.058716,284.254425 659.067078,344.682648 
	C659.067200,345.511078 659.173584,346.339478 659.109497,347.630005 
	C658.314819,346.591736 657.054199,345.092316 657.051697,343.590820 
	C656.952515,283.276031 656.963013,222.961044 656.975952,162.646072 
	C656.976807,158.552887 660.449890,156.559250 666.060120,156.936676 
	C675.115540,157.545868 684.185120,157.943741 693.894409,158.465561 
	C693.894409,150.800217 693.867249,143.717606 693.910889,136.635422 
	C693.924133,134.485382 694.133057,132.336563 694.577759,130.077591 
z"/>
<path fill="#B7CCE8" opacity="1.000000" stroke="none" 
	d="
M14.202073,917.070862 
	C14.134817,907.753235 14.172614,898.433167 13.964099,889.118713 
	C13.820359,882.697754 13.141567,876.286499 13.073494,869.866943 
	C13.030211,865.785217 13.955992,861.696350 13.957703,857.610535 
	C14.006925,740.061951 13.994132,622.513306 14.137142,504.407898 
	C14.282921,503.851074 14.699301,503.918182 14.819741,504.378723 
	C14.958076,505.505157 14.991632,506.171021 14.991648,506.836914 
	C14.994709,642.253906 14.996030,777.670837 14.986947,913.087830 
	C14.986858,914.413696 14.847804,915.739563 14.630905,917.084595 
	C14.488185,917.103760 14.202073,917.070862 14.202073,917.070862 
z"/>
<path fill="#FFFFFF" opacity="1.000000" stroke="none" 
	d="
M653.608398,397.081482 
	C654.050720,398.539032 654.180908,400.172211 654.181091,401.805389 
	C654.190918,490.279327 654.188965,578.753235 654.197510,667.227173 
	C654.197632,668.555725 654.312805,669.884277 654.177612,671.653687 
	C653.653931,670.427490 653.044800,668.761047 653.041626,667.093384 
	C652.984375,636.597046 653.121399,606.100037 652.957397,575.604553 
	C652.846680,555.019897 652.136230,534.438354 652.043701,513.853821 
	C651.885010,478.542053 651.964722,443.229004 652.053833,407.916748 
	C652.062805,404.362549 652.823669,400.810242 653.608398,397.081482 
z"/>
<path fill="#F7F9FC" opacity="1.000000" stroke="none" 
	d="
M185.017975,975.057434 
	C183.358765,975.375183 181.699982,975.967651 180.040298,975.970154 
	C144.428650,976.023376 108.816887,976.036987 73.205215,975.998108 
	C57.921471,975.981384 43.993217,972.241150 33.136955,960.232056 
	C33.403645,959.495667 33.523502,959.346130 33.921669,959.392212 
	C43.162876,967.181458 53.211117,972.463440 65.095566,973.393799 
	C71.723083,973.912598 78.390671,974.088379 85.041374,974.113953 
	C118.353844,974.242126 151.666702,974.269470 184.965332,974.514832 
	C184.951218,974.697388 185.017975,975.057434 185.017975,975.057434 
z"/>
<path fill="#A6C0E2" opacity="1.000000" stroke="none" 
	d="
M1019.836365,130.663177 
	C1020.019043,130.170807 1020.271606,130.128647 1020.907471,130.047607 
	C1021.564453,134.695267 1021.939392,139.378723 1022.082703,144.069244 
	C1022.218628,148.519287 1022.111877,152.976746 1022.111877,158.275497 
	C1029.826782,157.797348 1037.157715,157.200943 1044.500488,156.932404 
	C1050.482056,156.713654 1051.091553,157.476700 1051.110352,163.407471 
	C1051.134033,170.888809 1051.146729,178.370163 1051.172119,185.851501 
	C1051.172607,185.998596 1051.271973,186.145370 1051.578003,186.988861 
	C1059.390259,186.988861 1067.466675,186.988861 1075.653320,187.753601 
	C1075.690063,188.788406 1075.616577,189.058456 1075.542969,189.328506 
	C1066.934204,189.328506 1058.325439,189.328506 1049.282593,189.328506 
	C1049.282593,179.263474 1049.282593,170.000717 1049.282593,160.047928 
	C1039.498779,160.047928 1030.127563,160.047928 1019.906311,160.047928 
	C1019.906311,149.951004 1019.906311,140.532181 1019.836365,130.663177 
z"/>
<path fill="#FFFFFF" opacity="1.000000" stroke="none" 
	d="
M1075.558350,189.773834 
	C1075.616577,189.058456 1075.690063,188.788406 1075.887451,188.116608 
	C1076.340942,188.909683 1076.958008,190.104340 1076.958862,191.299393 
	C1077.003540,258.936432 1076.997314,326.573486 1076.987305,394.210541 
	C1076.987305,394.703918 1076.867310,395.197327 1076.408203,395.892090 
	C1075.869995,394.117340 1075.602661,392.141235 1075.601929,390.165039 
	C1075.576904,323.516418 1075.577271,256.867767 1075.558350,189.773834 
z"/>
<path fill="#FEFFFF" opacity="1.000000" stroke="none" 
	d="
M1076.408203,641.890869 
	C1075.868408,640.115784 1075.599121,638.140381 1075.598145,636.164917 
	C1075.567261,575.695496 1075.562744,515.226074 1075.789551,454.332794 
	C1076.350342,455.075714 1076.958984,456.242310 1076.959839,457.409393 
	C1077.004395,518.343323 1076.998047,579.277344 1076.988159,640.211304 
	C1076.988037,640.704346 1076.867920,641.197449 1076.408203,641.890869 
z"/>
<path fill="#E3ECF6" opacity="1.000000" stroke="none" 
	d="
M185.482956,975.004150 
	C185.017975,975.057434 184.951218,974.697388 185.426102,974.416382 
	C209.459976,974.121948 233.020889,973.926208 256.577087,974.176453 
	C267.370941,974.291077 277.690369,972.732849 287.708374,968.599915 
	C287.829468,968.761902 288.073456,969.084595 288.073456,969.084595 
	C279.842804,975.789062 269.883575,975.813232 260.108551,975.968933 
	C244.456680,976.218323 228.796555,976.160034 213.142578,975.988159 
	C204.074997,975.888611 195.012650,975.312500 185.482956,975.004150 
z"/>
<path fill="#FEFFFF" opacity="1.000000" stroke="none" 
	d="
M1076.040527,453.549255 
	C1056.698853,453.987457 1037.305420,453.987457 1017.232666,453.987457 
	C1017.232666,444.727661 1017.210144,435.515137 1017.314270,426.304047 
	C1017.318481,425.930878 1018.518616,425.571198 1019.553345,425.452118 
	C1019.945007,425.699005 1020.009460,426.031189 1020.009460,426.031189 
	C1019.673157,429.411865 1019.145630,432.786804 1019.044250,436.174500 
	C1018.881531,441.617615 1019.000610,447.069214 1019.000610,453.381287 
	C1024.183960,452.898102 1029.000000,452.126190 1033.825806,452.061249 
	C1047.107544,451.882385 1060.393555,451.981293 1073.677368,452.047485 
	C1074.449585,452.051331 1075.218384,452.740692 1076.040527,453.549255 
z"/>
<path fill="#BFD2EA" opacity="1.000000" stroke="none" 
	d="
M504.962646,975.098999 
	C467.968170,975.068970 430.973663,975.039001 393.453064,974.849792 
	C392.926910,974.690613 392.947845,974.254395 393.410095,974.151611 
	C423.964813,974.033936 454.057281,974.001648 484.149719,974.017273 
	C491.123108,974.020874 498.096405,974.187988 505.097076,974.491699 
	C505.124390,974.703613 504.962646,975.098999 504.962646,975.098999 
z"/>
<path fill="#CDDCEF" opacity="1.000000" stroke="none" 
	d="
M1047.040649,671.615479 
	C1046.631104,671.964111 1046.404419,671.924316 1045.847412,671.783936 
	C1045.697388,664.104370 1045.888428,656.525513 1046.051147,648.946045 
	C1046.096436,646.837280 1046.057983,644.726685 1046.057983,641.817017 
	C1056.095703,641.817017 1065.624512,641.817017 1075.620117,641.916260 
	C1074.937500,642.698303 1073.802734,643.942200 1072.636841,643.972107 
	C1065.499146,644.155762 1058.354614,644.076172 1051.212280,644.058716 
	C1048.026978,644.050964 1047.012329,644.461426 1047.491089,648.621094 
	C1048.346069,656.047668 1047.410400,663.680420 1047.040649,671.615479 
z"/>
<path fill="#E6EDF7" opacity="1.000000" stroke="none" 
	d="
M659.112549,348.436432 
	C661.356506,347.816559 663.793518,347.414642 666.232300,347.403931 
	C680.177368,347.342712 694.123657,347.305481 708.066895,347.474396 
	C709.571594,347.492645 711.059631,348.889801 712.319946,350.072449 
	C710.261475,350.009338 708.443054,349.116913 706.614807,349.096466 
	C690.846375,348.920166 675.076172,348.901031 659.112549,348.436432 
z"/>
<path fill="#FFFFFF" opacity="1.000000" stroke="none" 
	d="
M13.905779,457.036926 
	C13.405947,447.047821 12.863215,437.060455 12.450857,427.067749 
	C12.386316,425.503754 12.914529,423.915253 13.726591,422.242920 
	C14.284530,422.147736 14.699983,422.081451 14.744207,422.542847 
	C14.758506,434.308868 14.728581,445.613525 14.490992,456.884766 
	C14.283325,456.851410 13.905779,457.036926 13.905779,457.036926 
z"/>
<path fill="#E7EEF7" opacity="1.000000" stroke="none" 
	d="
M1046.015015,425.004761 
	C1046.015015,415.549164 1046.015015,406.093567 1046.015015,395.796021 
	C1056.013428,395.796021 1065.587646,395.796021 1075.627075,395.901825 
	C1074.885132,396.599365 1073.665161,397.725464 1072.473145,397.696503 
	C1064.478149,397.502228 1056.489136,397.062317 1048.031494,396.681030 
	C1048.031494,404.431091 1048.107056,411.495514 1047.980835,418.556366 
	C1047.947388,420.425812 1047.293091,422.284180 1046.663940,424.579773 
	C1046.404053,425.011932 1046.015015,425.004761 1046.015015,425.004761 
z"/>
<path fill="#EFF4FA" opacity="1.000000" stroke="none" 
	d="
M392.947845,974.254395 
	C392.947845,974.254395 392.926910,974.690613 392.990112,974.899658 
	C386.673431,974.900696 380.260803,975.023804 373.922302,974.397095 
	C366.766296,973.689697 360.862000,969.701843 355.134277,965.285950 
	C355.404572,964.559387 355.527374,964.426270 355.943970,964.471252 
	C367.383636,972.020386 379.786041,974.588562 392.947845,974.254395 
z"/>
<path fill="#EBF1F9" opacity="1.000000" stroke="none" 
	d="
M14.199628,378.941925 
	C12.654899,366.040100 15.824120,354.458893 23.960096,344.291382 
	C24.601351,343.489990 25.478024,342.876984 26.576015,342.045227 
	C27.032434,342.031616 27.158129,342.149170 27.284504,342.722229 
	C19.062727,353.683044 14.962376,365.629913 14.632345,378.931732 
	C14.488219,378.917755 14.199628,378.941925 14.199628,378.941925 
z"/>
<path fill="#FFFFFF" opacity="1.000000" stroke="none" 
	d="
M505.174622,975.481201 
	C504.962646,975.098999 505.124390,974.703613 505.558868,974.443359 
	C517.972229,974.215454 529.951172,974.247925 541.903076,974.491333 
	C541.876099,974.702332 542.039612,975.094971 542.039612,975.094971 
	C541.368530,975.395874 540.697632,975.958435 540.026367,975.958984 
	C528.479797,975.968262 516.933228,975.908264 505.174622,975.481201 
z"/>
<path fill="#F7F9FC" opacity="1.000000" stroke="none" 
	d="
M14.136312,917.525391 
	C14.202073,917.070862 14.488185,917.103760 14.687354,917.517822 
	C15.073589,929.336487 18.440754,939.714722 24.866274,949.132935 
	C25.432533,949.962891 25.610462,951.057739 25.968290,952.031433 
	C25.967838,952.033264 25.952654,952.046265 25.952656,952.046265 
	C23.298407,948.506592 19.997383,945.275513 18.129606,941.360596 
	C14.646304,934.059509 13.132247,926.170898 14.136312,917.525391 
z"/>
<path fill="#FFFFFF" opacity="1.000000" stroke="none" 
	d="
M14.699301,503.918182 
	C14.699301,503.918182 14.282921,503.851074 14.093180,503.943298 
	C11.825029,498.874237 12.667177,493.541260 12.893836,488.224060 
	C13.105221,483.265198 13.088838,478.296631 13.728704,473.239807 
	C14.284693,473.147278 14.700706,473.081329 14.744728,473.542725 
	C14.758934,483.975494 14.729117,493.946838 14.699301,503.918182 
z"/>
<path fill="#BFD2EA" opacity="1.000000" stroke="none" 
	d="
M542.467651,975.052368 
	C542.039612,975.094971 541.876099,974.702332 542.364197,974.377380 
	C554.250061,974.111572 565.647827,974.170654 577.048645,974.454834 
	C577.051697,974.679871 576.938965,975.115723 576.938965,975.115723 
	C568.458984,975.410583 559.980713,975.811646 551.498169,975.941101 
	C548.636108,975.984863 545.763489,975.339966 542.467651,975.052368 
z"/>
<path fill="#FFFFFF" opacity="1.000000" stroke="none" 
	d="
M682.605347,394.907288 
	C681.885925,395.703033 680.784790,397.307709 679.639771,397.339630 
	C671.341858,397.571350 663.035034,397.485565 654.321350,397.234894 
	C655.086914,396.313080 656.270325,395.078583 657.436157,395.094940 
	C664.466858,395.193634 671.492249,395.627472 678.522888,395.821899 
	C679.741089,395.855530 680.976074,395.281464 682.605347,394.907288 
z"/>
<path fill="#EBF1F9" opacity="1.000000" stroke="none" 
	d="
M577.112793,975.469604 
	C576.938965,975.115723 577.051697,974.679871 577.482239,974.389404 
	C585.587646,972.703796 593.262451,971.308655 600.968689,969.952881 
	C601.000061,969.992126 601.064148,970.069580 601.064087,970.069580 
	C599.643494,971.297363 598.374084,973.289612 596.773193,973.606323 
	C592.383057,974.474792 587.852051,974.625305 583.379761,975.088318 
	C581.345154,975.298950 579.317444,975.576355 577.112793,975.469604 
z"/>
<path fill="#B7CCE8" opacity="1.000000" stroke="none" 
	d="
M14.109381,379.375549 
	C14.199628,378.941925 14.488219,378.917755 14.723472,379.396271 
	C14.872478,393.943665 14.786230,408.012573 14.699983,422.081451 
	C14.699983,422.081451 14.284530,422.147736 14.095654,422.054932 
	C13.938464,412.540283 13.973247,403.118439 14.000510,393.696564 
	C14.013906,389.067444 14.013368,384.438293 14.109381,379.375549 
z"/>
<path fill="#FCFDFE" opacity="1.000000" stroke="none" 
	d="
M712.032227,365.085480 
	C713.726990,368.433777 711.303528,368.147125 709.291199,368.159149 
	C700.868530,368.209503 692.445679,368.239563 683.563965,368.300110 
	C688.100159,364.868866 693.574890,366.030640 699.061584,366.454010 
	C703.132080,366.768097 707.511047,368.925659 711.651062,365.162170 
	C712.066833,365.059998 712.032227,365.085480 712.032227,365.085480 
z"/>
<path fill="#EDF2FA" opacity="1.000000" stroke="none" 
	d="
M1045.547607,425.054413 
	C1046.015015,425.004761 1046.404053,425.011932 1046.598511,425.009338 
	C1044.873047,425.678162 1042.945435,426.939240 1041.034546,426.914459 
	C1034.333618,426.827698 1027.638550,426.298035 1020.475342,425.983887 
	C1020.009460,426.031189 1019.945007,425.699005 1019.957764,425.530273 
	C1028.340454,425.275726 1036.710327,425.189911 1045.547607,425.054413 
z"/>
<path fill="#EFF4FA" opacity="1.000000" stroke="none" 
	d="
M331.075317,930.422119 
	C331.158112,930.003113 331.512054,930.004211 331.815735,930.353027 
	C333.933167,935.314392 335.746857,939.927002 337.402588,944.670532 
	C337.244659,944.801392 336.929565,945.064209 336.929565,945.064209 
	C332.401184,941.387329 331.517761,936.188965 331.075317,930.422119 
z"/>
<path fill="#E3ECF6" opacity="1.000000" stroke="none" 
	d="
M306.082855,955.082642 
	C302.659973,958.400330 299.237091,961.718079 295.279419,964.885681 
	C294.628601,964.615173 294.512634,964.494812 294.630554,964.147461 
	C298.392456,960.773254 301.920410,957.626099 305.607239,954.629517 
	C305.766113,954.780212 306.082855,955.082642 306.082855,955.082642 
z"/>
<path fill="#EFF4FA" opacity="1.000000" stroke="none" 
	d="
M348.922272,960.077576 
	C345.939575,956.991028 342.956909,953.904480 340.130005,950.272583 
	C340.409515,949.608582 340.533173,949.490051 340.884613,949.604004 
	C343.938080,953.020386 346.763763,956.204285 349.422882,959.560791 
	C349.256348,959.733398 348.922272,960.077576 348.922272,960.077576 
z"/>
<path fill="#EBF1F9" opacity="1.000000" stroke="none" 
	d="
M609.925537,964.914917 
	C607.331543,966.725098 604.591736,968.376892 601.458008,970.049194 
	C601.064148,970.069580 601.000061,969.992126 600.963562,969.606445 
	C603.781067,967.626892 606.635132,966.032898 609.489136,964.438904 
	C609.489136,964.438904 609.779724,964.756592 609.925537,964.914917 
z"/>
<path fill="#E1EAF5" opacity="1.000000" stroke="none" 
	d="
M712.327148,364.696655 
	C712.032227,365.085480 712.066833,365.059998 712.054382,365.044891 
	C712.070068,360.569641 712.098267,356.109497 712.102966,351.206818 
	C712.260376,355.278809 712.441162,359.793304 712.327148,364.696655 
z"/>
<path fill="#B7CCE8" opacity="1.000000" stroke="none" 
	d="
M14.700706,473.081329 
	C14.700706,473.081329 14.284693,473.147278 14.095472,473.054626 
	C13.934788,467.962280 13.963325,462.962585 13.948820,457.499908 
	C13.905779,457.036926 14.283325,456.851410 14.611399,457.343811 
	C14.859884,462.917908 14.780295,467.999634 14.700706,473.081329 
z"/>
<path fill="#E3ECF6" opacity="1.000000" stroke="none" 
	d="
M294.918640,964.916138 
	C293.005005,966.411011 290.917389,967.725342 288.451599,969.062134 
	C288.073456,969.084595 287.829468,968.761902 287.961365,968.400269 
	C290.194366,966.817200 292.295502,965.595825 294.396637,964.374451 
	C294.512634,964.494812 294.628601,964.615173 294.918640,964.916138 
z"/>
<path fill="#EFF4FA" opacity="1.000000" stroke="none" 
	d="
M355.097260,964.891724 
	C352.934601,963.659668 350.956482,962.228271 348.950317,960.437256 
	C348.922272,960.077576 349.256348,959.733398 349.685852,959.750549 
	C351.960297,961.276184 353.805237,962.784607 355.650146,964.293091 
	C355.527374,964.426270 355.404572,964.559387 355.097260,964.891724 
z"/>
<path fill="#E3ECF6" opacity="1.000000" stroke="none" 
	d="
M311.908478,946.922363 
	C310.982239,949.010437 309.864441,950.926819 308.222565,952.782715 
	C307.561737,952.595642 307.424957,952.468933 307.464417,952.066406 
	C308.871368,949.996399 310.102142,948.202271 311.332886,946.408142 
	C311.460938,946.522339 311.588928,946.636475 311.908478,946.922363 
z"/>
<path fill="#F7F9FC" opacity="1.000000" stroke="none" 
	d="
M29.921474,957.077820 
	C28.610115,955.647278 27.298767,954.216675 25.970036,952.416138 
	C25.952654,952.046265 25.967838,952.033264 26.285976,951.858032 
	C27.959152,953.229858 29.314192,954.776855 30.482437,956.512573 
	C30.170925,956.826660 30.046207,956.952209 29.921474,957.077820 
z"/>
<path fill="#EFF4FA" opacity="1.000000" stroke="none" 
	d="
M340.100769,949.905518 
	C338.935608,948.662659 337.955505,947.241455 336.952484,945.442261 
	C336.929565,945.064209 337.244659,944.801392 337.610596,944.883301 
	C338.869995,946.433899 339.763428,947.902710 340.656860,949.371521 
	C340.533173,949.490051 340.409515,949.608582 340.100769,949.905518 
z"/>
<path fill="#F7F9FC" opacity="1.000000" stroke="none" 
	d="
M31.917034,959.081055 
	C31.273867,958.645142 30.630701,958.209229 29.954512,957.425537 
	C30.046207,956.952209 30.170925,956.826660 30.716530,956.690247 
	C31.680962,957.241211 32.224510,957.803101 32.553753,958.542175 
	C32.198647,958.839905 32.057838,958.960510 31.917034,959.081055 
z"/>
<path fill="#E3ECF6" opacity="1.000000" stroke="none" 
	d="
M307.903198,952.912720 
	C307.666565,953.747437 307.225250,954.391663 306.433411,955.059265 
	C306.082855,955.082642 305.766113,954.780212 305.760712,954.392944 
	C306.266266,953.451172 306.777222,952.896729 307.288208,952.342285 
	C307.424957,952.468933 307.561737,952.595642 307.903198,952.912720 
z"/>
<path fill="#F7F9FC" opacity="1.000000" stroke="none" 
	d="
M33.100330,959.866577 
	C32.629684,959.917969 32.342499,959.748047 31.986174,959.329590 
	C32.057838,958.960510 32.198647,958.839905 32.718445,958.660034 
	C33.309612,958.771667 33.491589,958.970276 33.643364,959.196533 
	C33.523502,959.346130 33.403645,959.495667 33.100330,959.866577 
z"/>
<path fill="#FE7520" opacity="1.000000" stroke="none" 
	d="
M871.995117,379.810913 
	C872.001404,370.705048 872.001404,362.082855 872.001404,353.016113 
	C881.846558,353.016113 891.264404,353.016113 900.926392,353.016113 
	C900.926392,312.502747 900.926392,272.439941 900.926392,231.873596 
	C891.328674,231.873596 881.921204,231.873596 872.053772,231.873596 
	C872.053772,221.960648 872.053772,212.540482 872.053772,202.841553 
	C859.006836,202.841553 846.429504,202.841553 833.273804,202.841553 
	C833.273804,226.873199 833.273804,250.769104 833.273804,275.162048 
	C823.302002,275.162048 813.892761,275.162048 804.093262,275.162048 
	C804.093262,285.095551 804.093262,294.535522 804.093262,304.261536 
	C769.943542,304.261536 736.197632,304.261536 702.233643,304.261536 
	C702.233643,270.421478 702.233643,236.806412 702.233643,202.604553 
	C714.141113,202.604553 726.045227,202.604553 738.501709,202.604553 
	C738.501709,192.630112 738.501709,183.216705 738.501709,173.487015 
	C818.289062,173.487015 897.511047,173.487015 977.294922,173.487015 
	C977.294922,183.085373 977.294922,192.502121 977.294922,202.392197 
	C987.115173,202.392197 996.388977,202.392197 1006.211914,202.392197 
	C1006.211914,212.267609 1006.211914,221.678040 1006.211914,231.633148 
	C1015.151672,231.633148 1023.555481,231.633148 1032.266113,231.633148 
	C1032.266113,272.269623 1032.266113,312.346924 1032.266113,352.837036 
	C1022.739441,352.837036 1013.309509,352.837036 1003.385254,352.837036 
	C1003.385254,362.641937 1003.385254,372.054657 1003.385254,382.038879 
	C993.514832,382.038879 984.119812,382.038879 974.326111,382.038879 
	C974.326111,391.867859 974.326111,401.132660 974.326111,411.016968 
	C935.380371,411.016968 896.841370,411.016968 857.770996,411.016968 
	C857.770996,421.036316 857.770996,430.447906 857.770996,440.409119 
	C847.834229,440.409119 838.411133,440.409119 828.622559,440.409119 
	C828.622559,483.704559 828.622559,526.441772 828.622559,569.810791 
	C842.825012,569.810791 857.188843,569.810791 871.997498,569.810791 
	C871.997498,579.844055 871.997498,589.259766 871.997498,598.910767 
	C881.853455,598.910767 891.253601,598.910767 901.079834,598.910767 
	C901.079834,565.104004 901.079834,531.512329 901.079834,497.541046 
	C944.908386,497.541046 988.314209,497.541046 1032.152466,497.541046 
	C1032.152466,531.124878 1032.152466,564.836365 1032.152466,599.031860 
	C1022.731445,599.031860 1013.312805,599.031860 1003.301880,599.031860 
	C1003.301880,608.877869 1003.301880,618.269043 1003.301880,627.902832 
	C901.107178,627.902832 799.512268,627.902832 697.558838,627.902832 
	C697.558838,565.633057 697.558838,503.399506 697.558838,440.530334 
	C706.934387,440.530334 716.332825,440.530334 726.263855,440.530334 
	C726.263855,430.498230 726.263855,421.089203 726.263855,411.226410 
	C736.229858,411.226410 745.661255,411.226410 755.543579,411.226410 
	C755.543579,401.502960 755.543579,392.227875 755.543579,382.158844 
	C757.904724,382.158844 759.814636,382.158875 761.724548,382.158875 
	C796.888977,382.158844 832.053467,382.183136 867.217590,382.079742 
	C868.809753,382.075073 870.398560,380.915985 871.995117,379.810913 
z"/>
<path fill="#014AAD" opacity="1.000000" stroke="none" 
	d="
M33.921669,959.392212 
	C33.491589,958.970276 33.309612,958.771667 32.932747,958.482849 
	C32.224510,957.803101 31.680962,957.241211 30.903324,956.501587 
	C29.314192,954.776855 27.959152,953.229858 26.286427,951.856201 
	C25.610462,951.057739 25.432533,949.962891 24.866274,949.132935 
	C18.440754,939.714722 15.073589,929.336487 14.830074,917.498657 
	C14.847804,915.739563 14.986858,914.413696 14.986947,913.087830 
	C14.996030,777.670837 14.994709,642.253906 14.991648,506.836914 
	C14.991632,506.171021 14.958076,505.505157 14.819742,504.378723 
	C14.729117,493.946838 14.758934,483.975494 14.744728,473.542725 
	C14.780295,467.999634 14.859884,462.917908 14.819065,457.377197 
	C14.728581,445.613525 14.758506,434.308868 14.744207,422.542847 
	C14.786230,408.012573 14.872478,393.943665 14.867598,379.410248 
	C14.962376,365.629913 19.062727,353.683044 27.472885,342.898773 
	C41.026352,327.243347 57.988823,321.180389 78.202522,321.466797 
	C115.628418,321.997131 153.066238,321.649536 190.498795,321.763733 
	C205.295761,321.808868 218.041779,327.163330 229.070923,337.485718 
	C238.995422,347.542419 244.688614,359.294434 246.019730,373.400085 
	C249.761185,372.544617 253.298904,371.949585 256.664764,370.835358 
	C257.669769,370.502625 258.603210,368.808411 258.877686,367.583038 
	C264.866821,340.845886 286.019531,322.691895 313.357178,321.842712 
	C332.171539,321.258331 351.016205,321.618011 369.847321,321.611816 
	C421.844116,321.594666 473.841217,321.710846 525.837585,321.560120 
	C548.946777,321.493134 566.760681,330.806732 578.622437,350.635529 
	C581.552002,355.532806 582.772461,361.430908 585.057739,366.748993 
	C585.697937,368.238708 587.164917,370.163483 588.536926,370.431122 
	C613.586792,375.317719 633.477112,398.579132 634.831482,424.890320 
	C634.942810,427.052521 634.957336,429.221588 634.957458,431.387451 
	C634.962891,591.877563 634.904541,752.367737 635.031921,912.857727 
	C635.048950,934.242188 627.182495,951.304932 609.707642,964.210938 
	C606.635132,966.032898 603.781067,967.626892 600.932190,969.567200 
	C593.262451,971.308655 585.587646,972.703796 577.479187,974.164368 
	C565.647827,974.170654 554.250061,974.111572 542.391174,974.166382 
	C529.951172,974.247925 517.972229,974.215454 505.531555,974.231445 
	C498.096405,974.187988 491.123108,974.020874 484.149719,974.017273 
	C454.057281,974.001648 423.964813,974.033936 393.410095,974.151611 
	C379.786041,974.588562 367.383636,972.020386 355.943970,964.471252 
	C353.805237,962.784607 351.960297,961.276184 349.852417,959.577942 
	C346.763763,956.204285 343.938080,953.020386 340.884644,949.604004 
	C339.763428,947.902710 338.869995,946.433899 337.768555,944.752380 
	C335.746857,939.927002 333.933167,935.314392 331.992737,930.355225 
	C331.383820,923.044556 330.485352,916.080566 330.481049,909.116089 
	C330.397980,775.119934 330.419830,641.123718 330.420013,507.127533 
	C330.420013,505.334473 330.420013,503.541412 330.420013,501.321991 
	C326.417786,502.286224 322.939148,503.124298 319.175903,504.030945 
	C319.175903,506.191895 319.175903,508.165680 319.175903,510.139496 
	C319.175232,644.135620 319.144531,778.131714 319.225952,912.127747 
	C319.233185,923.995300 317.617676,935.337341 311.499451,946.098145 
	C310.102142,948.202271 308.871368,949.996399 307.464417,952.066406 
	C306.777222,952.896729 306.266266,953.451172 305.601837,954.242249 
	C301.920410,957.626099 298.392456,960.773254 294.630554,964.147461 
	C292.295502,965.595825 290.194366,966.817200 287.840271,968.238281 
	C277.690369,972.732849 267.370941,974.291077 256.577087,974.176453 
	C233.020889,973.926208 209.459976,974.121948 185.440216,974.233887 
	C151.666702,974.269470 118.353844,974.242126 85.041374,974.113953 
	C78.390671,974.088379 71.723083,973.912598 65.095566,973.393799 
	C53.211117,972.463440 43.162876,967.181458 33.921669,959.392212 
M591.997742,560.500000 
	C591.997742,542.335693 591.997986,524.171387 591.997803,506.007080 
	C591.997498,480.507935 592.052856,455.008636 591.969727,429.509766 
	C591.935425,418.984009 585.972412,413.122528 575.522339,413.011780 
	C570.356445,412.957031 565.189209,413.035156 560.023010,412.993896 
	C549.311523,412.908295 543.642029,407.477264 543.302124,396.812805 
	C543.137634,391.651489 543.343201,386.479401 543.251343,381.314514 
	C543.052917,370.155457 537.715698,364.599060 526.650391,364.588531 
	C456.819519,364.522156 386.988464,364.523834 317.157562,364.589355 
	C306.310120,364.599548 300.956024,370.132965 300.747345,380.929169 
	C300.628235,387.089020 300.962494,393.289917 300.361725,399.400482 
	C299.516418,407.998352 293.960876,412.760437 285.316650,412.967926 
	C279.819946,413.099854 274.317413,412.966339 268.817932,413.008331 
	C257.931885,413.091461 252.102524,418.843872 252.011948,429.600616 
	C251.965652,435.100067 252.097000,440.602264 251.977142,446.099487 
	C251.786911,454.824158 246.657181,460.676910 237.920807,461.212677 
	C230.462997,461.670074 222.868866,461.824219 215.494171,460.875488 
	C212.017609,460.428223 207.899643,457.769257 205.922516,454.856537 
	C203.881912,451.850342 203.459503,447.325989 203.416565,443.453766 
	C203.191132,423.123627 203.349655,402.789551 203.296005,382.457031 
	C203.260818,369.121185 198.817917,364.584686 185.679260,364.568024 
	C148.847229,364.521301 112.015030,364.516235 75.183022,364.571899 
	C63.152760,364.590088 57.831635,369.974640 57.830578,382.003967 
	C57.815022,559.164673 57.815067,736.325378 57.831112,913.486084 
	C57.832233,925.861572 63.091751,931.138794 75.498917,931.145630 
	C136.663498,931.179260 197.828125,931.175476 258.992737,931.148315 
	C271.238403,931.142822 276.125427,926.150208 276.232086,913.799927 
	C276.246490,912.133423 276.235718,910.466736 276.235718,908.800110 
	C276.235779,766.471558 276.233063,624.143005 276.255402,481.814484 
	C276.255829,478.992340 276.294098,476.127655 276.756104,473.356415 
	C277.948059,466.206696 281.893494,462.353760 289.084229,461.850891 
	C295.720886,461.386749 302.403931,461.628479 309.062164,461.419678 
	C319.696991,461.086182 324.549103,456.239044 324.811890,445.633453 
	C324.960419,439.637146 324.768829,433.632751 324.896759,427.635529 
	C325.088409,418.651459 330.192383,413.408966 339.188019,413.077942 
	C344.847168,412.869720 350.519348,412.981476 356.185486,413.005493 
	C368.275726,413.056824 373.111816,417.857422 373.286957,429.933167 
	C373.308716,431.432800 373.290924,432.933044 373.290924,434.432983 
	C373.291016,593.427612 373.289764,752.422302 373.293152,911.416931 
	C373.293457,926.294800 378.192139,931.159363 393.146454,931.160095 
	C452.811127,931.162842 512.475769,931.163025 572.140442,931.159851 
	C587.113220,931.159119 591.997192,926.315796 591.997253,911.488220 
	C591.998108,794.825500 591.997742,678.162720 591.997742,560.500000 
z"/>
<path fill="#FF751F" opacity="1.000000" stroke="none" 
	d="
M591.997742,561.000000 
	C591.997742,678.162720 591.998108,794.825500 591.997253,911.488220 
	C591.997192,926.315796 587.113220,931.159119 572.140442,931.159851 
	C512.475769,931.163025 452.811127,931.162842 393.146454,931.160095 
	C378.192139,931.159363 373.293457,926.294800 373.293152,911.416931 
	C373.289764,752.422302 373.291016,593.427612 373.290924,434.432983 
	C373.290924,432.933044 373.308716,431.432800 373.286957,429.933167 
	C373.111816,417.857422 368.275726,413.056824 356.185486,413.005493 
	C350.519348,412.981476 344.847168,412.869720 339.188019,413.077942 
	C330.192383,413.408966 325.088409,418.651459 324.896759,427.635529 
	C324.768829,433.632751 324.960419,439.637146 324.811890,445.633453 
	C324.549103,456.239044 319.696991,461.086182 309.062164,461.419678 
	C302.403931,461.628479 295.720886,461.386749 289.084229,461.850891 
	C281.893494,462.353760 277.948059,466.206696 276.756104,473.356415 
	C276.294098,476.127655 276.255829,478.992340 276.255402,481.814484 
	C276.233063,624.143005 276.235779,766.471558 276.235718,908.800110 
	C276.235718,910.466736 276.246490,912.133423 276.232086,913.799927 
	C276.125427,926.150208 271.238403,931.142822 258.992737,931.148315 
	C197.828125,931.175476 136.663498,931.179260 75.498917,931.145630 
	C63.091751,931.138794 57.832233,925.861572 57.831112,913.486084 
	C57.815067,736.325378 57.815022,559.164673 57.830578,382.003967 
	C57.831635,369.974640 63.152760,364.590088 75.183022,364.571899 
	C112.015030,364.516235 148.847229,364.521301 185.679260,364.568024 
	C198.817917,364.584686 203.260818,369.121185 203.296005,382.457031 
	C203.349655,402.789551 203.191132,423.123627 203.416565,443.453766 
	C203.459503,447.325989 203.881912,451.850342 205.922516,454.856537 
	C207.899643,457.769257 212.017609,460.428223 215.494171,460.875488 
	C222.868866,461.824219 230.462997,461.670074 237.920807,461.212677 
	C246.657181,460.676910 251.786911,454.824158 251.977142,446.099487 
	C252.097000,440.602264 251.965652,435.100067 252.011948,429.600616 
	C252.102524,418.843872 257.931885,413.091461 268.817932,413.008331 
	C274.317413,412.966339 279.819946,413.099854 285.316650,412.967926 
	C293.960876,412.760437 299.516418,407.998352 300.361725,399.400482 
	C300.962494,393.289917 300.628235,387.089020 300.747345,380.929169 
	C300.956024,370.132965 306.310120,364.599548 317.157562,364.589355 
	C386.988464,364.523834 456.819519,364.522156 526.650391,364.588531 
	C537.715698,364.599060 543.052917,370.155457 543.251343,381.314514 
	C543.343201,386.479401 543.137634,391.651489 543.302124,396.812805 
	C543.642029,407.477264 549.311523,412.908295 560.023010,412.993896 
	C565.189209,413.035156 570.356445,412.957031 575.522339,413.011780 
	C585.972412,413.122528 591.935425,418.984009 591.969727,429.509766 
	C592.052856,455.008636 591.997498,480.507935 591.997803,506.007080 
	C591.997986,524.171387 591.997742,542.335693 591.997742,561.000000 
z"/>
</svg>